<?xml version="1.0" encoding="UTF-8"?>
<svg width="395px" height="505px" viewBox="0 0 395 505" version="1.1" xmlns="http://www.w3.org/2000/svg" xmlns:xlink="http://www.w3.org/1999/xlink">
    <!-- Generator: Sketch 52.4 (67378) - http://www.bohemiancoding.com/sketch -->
    <title>certificate</title>
    <desc>Created with Sketch.</desc>
    <g id="Page-1" stroke="none" stroke-width="1" fill="none" fill-rule="evenodd">
        <g id="certificate">
            <path d="M253.567,161.452 L101.542,230.375 L224.422,501.341 L290.588,445.415 L376.053,432.812 C376.053,432.812 253.567,161.452 253.567,161.452 Z" id="Path" fill="#2B414D"></path>
            <path d="M140.927,164.209 L292.952,233.132 L170.072,504.492 L103.906,448.172 L18.048,435.569 C18.047,435.569 140.927,164.209 140.927,164.209 Z" id="Path" fill="#475F6C"></path>
            <path d="M394.17,197.292 C394.17,211.864 373.296,224.074 370.145,237.858 C366.994,252.036 380.779,272.123 374.871,285.12 C368.569,298.117 344.545,299.692 335.88,310.72 C327.215,321.748 331.154,346.166 320.126,355.225 C309.098,364.284 287.043,354.831 274.44,361.133 C261.837,367.435 255.142,391.065 241.357,394.216 C227.966,397.367 211.819,379.25 197.64,379.25 C183.462,379.25 167.314,397.367 153.923,394.216 C140.138,391.065 133.443,367.434 120.84,361.133 C108.237,354.831 85.788,364.284 75.154,355.225 C64.126,346.167 68.065,321.748 59.4,310.72 C50.735,299.692 26.711,298.117 20.409,285.12 C14.501,272.517 28.286,252.037 25.135,237.858 C21.197,224.073 0.323,211.864 0.323,197.292 C0.323,182.72 21.197,170.51 24.348,156.726 C27.499,142.548 13.714,122.461 19.622,109.464 C25.924,96.467 49.948,94.892 58.613,83.864 C67.278,72.836 63.339,48.418 74.367,39.359 C85.395,30.3 107.45,39.753 120.053,33.451 C132.656,27.149 139.351,3.519 153.136,0.368 C166.527,-2.783 182.674,15.334 196.853,15.334 C211.031,15.334 227.179,-2.783 240.57,0.368 C254.355,3.519 261.05,27.15 273.653,33.451 C286.256,39.753 308.705,30.3 319.339,39.359 C330.367,48.417 326.428,72.836 335.093,83.864 C343.758,94.892 367.782,96.467 374.084,109.464 C379.992,122.067 366.207,142.547 369.358,156.726 C373.296,170.511 394.17,182.72 394.17,197.292 Z" id="Path" fill="#CECECE"></path>
            <path d="M197.247,118.523 C153.53,118.523 118.478,153.969 118.478,197.292 C118.478,240.615 153.924,276.061 197.247,276.061 C240.964,276.061 276.016,240.615 276.016,197.292 C276.016,153.969 240.963,118.523 197.247,118.523 Z M197.247,232.738 C177.555,232.738 161.801,216.984 161.801,197.292 C161.801,177.6 177.555,161.846 197.247,161.846 C216.939,161.846 232.693,177.6 232.693,197.292 C232.693,216.984 216.939,232.738 197.247,232.738 Z M197.247,55.507 C118.872,55.507 55.462,118.916 55.462,197.292 C55.462,275.668 118.871,339.077 197.247,339.077 C275.623,339.077 339.031,275.667 339.031,197.292 C339.031,118.917 275.622,55.507 197.247,55.507 Z M197.247,315.446 C131.869,315.446 79.093,262.671 79.093,197.292 C79.093,131.913 131.868,79.138 197.247,79.138 C262.626,79.138 315.401,131.913 315.401,197.292 C315.401,262.671 262.625,315.446 197.247,315.446 Z" id="Shape" fill="#F1EDED" fill-rule="nonzero"></path>
        </g>
    </g>
</svg>