<?xml version="1.0" encoding="UTF-8"?>
<svg width="132px" height="72px" viewBox="0 0 132 72" version="1.1" xmlns="http://www.w3.org/2000/svg" xmlns:xlink="http://www.w3.org/1999/xlink">
    <!-- Generator: Sketch 52.3 (67297) - http://www.bohemiancoding.com/sketch -->
    <title>logo_complet</title>
    <desc>Created with Sketch.</desc>
    <defs>
        <linearGradient x1="58.2967823%" y1="61.9124826%" x2="59.9815045%" y2="18.0757505%" id="linearGradient-1">
            <stop stop-color="#90DDDD" stop-opacity="0.87" offset="0%"></stop>
            <stop stop-color="#5388C6" stop-opacity="0.665336277" offset="100%"></stop>
        </linearGradient>
    </defs>
    <g id="Page-1" stroke="none" stroke-width="1" fill="none" fill-rule="evenodd">
        <g id="UI_kit" transform="translate(-228.000000, -42.000000)">
            <g id="logo_complet" transform="translate(216.000000, 30.000000)">
                <rect id="Rectangle" x="0" y="0" width="156" height="97"></rect>
                <text id="Digital-Nomad-Projec" font-family="Nunito-Regular, Nunito" font-size="12" font-weight="normal" letter-spacing="-0.0553846136" fill="#5388C6" fill-opacity="0.87">
                    <tspan x="20.4195384" y="81">Digital Nomad Project</tspan>
                </text>
                <g id="svg" transform="translate(12.000000, 12.000000)">
                    <g id="path" transform="translate(7.000000, 0.000000)">
                        <path d="M94.9176588,49 C94.4948163,49 93.8884955,49 93.0986965,49 L41.0864709,49 C40.4864296,49 40,48.5135704 40,47.9135291 L40,47.9135291 C40,47.3134878 40.4864296,46.8270582 41.0864709,46.8270582 L92.8145839,46.8270582 L92.8145839,15.9858156 C92.8145839,15.3900679 93.0065293,14.9101673 93.3904259,14.5460993 C93.7743224,14.1820313 94.283395,14 94.9176588,14 L104.681935,14 C110.323545,14 115.974291,15.4036285 119.062154,18.4320125 C122.150018,21.4603964 125,25.9065914 125,31.5 C125,37.0934086 122.166709,41.5696148 119.062154,44.6145473 C115.9576,47.6594798 110.290163,49 104.681935,49 L94.9176588,49 Z M105.91393,46.8075871 C115.060682,46.8075871 123.029502,40.6576848 123.029502,31.2912077 C123.029502,21.9578277 115.060682,15.7748283 105.91393,15.7748283 L99.3916033,15.7748283 L99.3916033,42.8543372 L92.8163302,42.8543372 L92.8163302,46.8075871 L96.9205873,46.8075871 L105.91393,46.8075871 Z" id="DDD" fill="#A6E2E3"></path>
                        <path d="M54.9176588,35 C54.4948163,35 53.8884955,35 53.0986965,35 L1.08647091,35 C0.486429597,35 4.07056198e-15,34.5135704 0,33.9135291 L0,33.9135291 C-7.34838679e-17,33.3134878 0.486429597,32.8270582 1.08647091,32.8270582 L52.8145839,32.8270582 L52.8145839,1.9858156 C52.8145839,1.39006794 53.0065293,0.910167305 53.3904259,0.546099291 C53.7743224,0.182031277 54.283395,0 54.9176588,0 L64.6819353,0 C70.3235454,0 75.9742909,1.40362853 79.0621544,4.43201246 C82.150018,7.4603964 85,11.9065914 85,17.5 C85,23.0934086 82.1667091,27.5696148 79.0621544,30.6145473 C75.9575997,33.6594798 70.2901631,35 64.6819353,35 L54.9176588,35 Z M65.9139298,32.8075871 C75.0606824,32.8075871 83.0295019,26.6576848 83.0295019,17.2912077 C83.0295019,7.95782773 75.0606824,1.77482831 65.9139298,1.77482831 L59.3916033,1.77482831 L59.3916033,28.8543372 L52.8163302,28.8543372 L52.8163302,32.8075871 L56.9205873,32.8075871 L65.9139298,32.8075871 Z" id="DDD" fill-opacity="0.87" fill="#5388C6"></path>
                        <path d="M74.9176588,42 C74.4948163,42 73.8884955,42 73.0986965,42 L21.0864709,42 C20.4864296,42 20,41.5135704 20,40.9135291 L20,40.9135291 C20,40.3134878 20.4864296,39.8270582 21.0864709,39.8270582 L72.8145839,39.8270582 L72.8145839,8.9858156 C72.8145839,8.39006794 73.0065293,7.9101673 73.3904259,7.54609929 C73.7743224,7.18203128 74.283395,7 74.9176588,7 L84.6819353,7 C90.3235454,7 95.9742909,8.40362853 99.0621544,11.4320125 C102.150018,14.4603964 105,18.9065914 105,24.5 C105,30.0934086 102.166709,34.5696148 99.0621544,37.6145473 C95.9575997,40.6594798 90.2901631,42 84.6819353,42 L74.9176588,42 Z M85.9139298,39.8075871 C95.0606824,39.8075871 103.029502,33.6576848 103.029502,24.2912077 C103.029502,14.9578277 95.0606824,8.77482831 85.9139298,8.77482831 L79.3916033,8.77482831 L79.3916033,35.8543372 L72.8163302,35.8543372 L72.8163302,39.8075871 L76.9205873,39.8075871 L85.9139298,39.8075871 Z" id="DDD" fill="url(#linearGradient-1)"></path>
                    </g>
                    <circle id="Oval" fill="#A6E2E3" cx="45" cy="48" r="1"></circle>
                    <circle id="Oval" fill="#A6E2E3" cx="41" cy="48" r="1"></circle>
                    <circle id="Oval" fill="#A6E2E3" cx="25" cy="41" r="1"></circle>
                    <circle id="Oval" fill="#A6E2E3" cx="21" cy="41" r="1"></circle>
                    <circle id="Oval" fill-opacity="0.87" fill="#5388C6" cx="5" cy="34" r="1"></circle>
                    <circle id="Oval" fill-opacity="0.87" fill="#5388C6" cx="1" cy="34" r="1"></circle>
                </g>
            </g>
        </g>
    </g>
</svg>